<svg id="Layer_1" data-name="Layer 1" xmlns="http://www.w3.org/2000/svg" viewBox="0 0 100 100"><title>cases</title><g style="opacity:0.8"><path d="M50,1A49,49,0,1,1,1,50,49.06,49.06,0,0,1,50,1m0-1a50,50,0,1,0,50,50A50,50,0,0,0,50,0Z" style="fill:#fff"/><path d="M59.57,37.15a5,5,0,0,1-.78,2,1.72,1.72,0,0,1-.82.68l-.56.16-.12.58A17.6,17.6,0,0,1,55.73,45a11.21,11.21,0,0,1-1.61,2.56,10.72,10.72,0,0,1-1.24,1.24,9.4,9.4,0,0,1-12.24,0,9.73,9.73,0,0,1-1.2-1.17,11.56,11.56,0,0,1-2.18-3.83,18.85,18.85,0,0,1-1-3.32l-.12-.58-.58-.16a1.78,1.78,0,0,1-.82-.68,5.12,5.12,0,0,1-.76-2,4.14,4.14,0,0,1,.27-2.7l.19-.33-.1-.39c0-.16-.06-.31-.1-.47A13.77,13.77,0,0,1,34,29.69a22.3,22.3,0,0,1,.64-4.25,9.41,9.41,0,0,1,3.87-5.13,14.69,14.69,0,0,1,16.47,0,9.48,9.48,0,0,1,3.87,5.15,21.08,21.08,0,0,1,.62,4.23,15,15,0,0,1-.19,3.59,3,3,0,0,1-.12.45l-.1.39.21.35A4.35,4.35,0,0,1,59.57,37.15Z" style="fill:#fff"/><path d="M39.84,57,39,50.62a4.46,4.46,0,0,1-1.22.84,22.34,22.34,0,0,1-4.54,1.16,28.79,28.79,0,0,0-6.48,1.77,7.4,7.4,0,0,0-4.38,4.68,25.15,25.15,0,0,0-1.14,6.58,5.29,5.29,0,0,0-.15,1.21v2.58s0,.07,0,.11a5.42,5.42,0,0,0,5.39,5.29H43L45,55.6l-1.35-2.86Z" style="fill:#fff"/><path d="M57.5,74.85H50.64l-2-19.24,1.34-2.86,2.64,3.08a19,19,0,0,0-.81,5.52A18.69,18.69,0,0,0,57.5,74.85Z" style="fill:#fff"/><path d="M69.28,46.87a15,15,0,1,0,15,15A15,15,0,0,0,69.28,46.87Zm0,24.38a1.88,1.88,0,1,1,1.88-1.87A1.88,1.88,0,0,1,69.28,71.24Zm1.88-7.5a1.88,1.88,0,0,1-1.87,1.88,1.89,1.89,0,0,1-1.87-1.88V53.43a1.88,1.88,0,0,1,1.88-1.87,1.89,1.89,0,0,1,1.88,1.88Z" style="fill:#fff"/></g></svg>