<svg id="Layer_1" data-name="Layer 1" xmlns="http://www.w3.org/2000/svg" viewBox="0 0 100 100"><title>documents</title><g style="opacity:0.8"><path d="M50,1A49,49,0,1,1,1,50,49.06,49.06,0,0,1,50,1m0-1a50,50,0,1,0,50,50A50,50,0,0,0,50,0Z" style="fill:#fff"/><path d="M53.15,19.52H30.45a5.21,5.21,0,0,0-5.21,5.21V60.54a5.23,5.23,0,0,0,5.21,5.23h6v-2.2h-6a3,3,0,0,1-3-3V24.73a3,3,0,0,1,3-3H52.23l.26.26,7.61,7.59.24.24V33.2h2.2V28.91Z" style="fill:#fff"/><polygon points="52.49 19.52 52.49 29.56 62.54 29.56 52.49 19.52" style="fill:#fff"/><path d="M64.94,37.29l8.1,8.1V76.12a3,3,0,0,1-3,3H43.17a3,3,0,0,1-3-3V40.31a3,3,0,0,1,3-3H64.94m.91-2.2H43.17a5.23,5.23,0,0,0-5.22,5.22v35.8a5.23,5.23,0,0,0,5.22,5.22H70a5.23,5.23,0,0,0,5.22-5.22V44.48l-9.39-9.39Z" style="fill:#fff"/><polygon points="65.19 35.09 65.19 45.13 75.24 45.13 65.19 35.09" style="fill:#fff"/><rect x="45.43" y="64.25" width="22.39" height="2.2" style="fill:#fff"/><rect x="45.43" y="51.06" width="17.59" height="2.2" style="fill:#fff"/><rect x="45.43" y="70.85" width="22.39" height="2.2" style="fill:#fff"/><rect x="45.43" y="57.66" width="17.59" height="2.2" style="fill:#fff"/></g></svg>