<svg id="Layer_1" data-name="Layer 1" xmlns="http://www.w3.org/2000/svg" viewBox="0 0 100 100"><title>employees</title><g style="opacity:0.8"><path d="M50,1A49,49,0,1,1,1,50,49.06,49.06,0,0,1,50,1m0-1a50,50,0,1,0,50,50A50,50,0,0,0,50,0Z" style="fill:#fff"/><g id="Layer_3" data-name="Layer 3"><path d="M22.5,56.44a10.15,10.15,0,0,1,3.1-2.15,22.27,22.27,0,0,1,4.65-1.41,1.92,1.92,0,0,1-.34-.13,1.7,1.7,0,0,1-.64-.48,1.63,1.63,0,0,1-.27-.41,4.74,4.74,0,0,0,1-1.18,7.15,7.15,0,0,0,.88-2.26,1.06,1.06,0,0,0,.54-.43,2.63,2.63,0,0,0,.36-.91,2.09,2.09,0,0,0-.14-1.32.9.9,0,0,1,0-.21,5.66,5.66,0,0,0,.09-1.5c0-.18,0-.36,0-.52-.09-.7-.21-1.22-.21-1.25a4.1,4.1,0,0,0-1.22-1.86L29.86,40a6.21,6.21,0,0,0-7,0,4.1,4.1,0,0,0-1.66,2.24A9.37,9.37,0,0,0,20.95,44a5.66,5.66,0,0,0,.09,1.5.9.9,0,0,0,0,.21,2.08,2.08,0,0,0-.16,1.32,2.42,2.42,0,0,0,.38.93,1,1,0,0,0,.54.41,7,7,0,0,0,.88,2.27,5.39,5.39,0,0,0,1,1.18,2.12,2.12,0,0,1-.25.39,2,2,0,0,1-.64.5,9.3,9.3,0,0,1-1.79.45,11.69,11.69,0,0,0-2.58.7,3,3,0,0,0-1.74,1.86,10.66,10.66,0,0,0-.45,2.61,2,2,0,0,0-.05.47v1.07A2.15,2.15,0,0,0,18.35,62H20c.14-.66.34-1.41.59-2.29,0-.11.07-.21.11-.3A7.23,7.23,0,0,1,22.5,56.44Z" style="fill:#fff"/></g><g id="Layer_3-2" data-name="Layer 3"><path d="M78.24,58.41a10,10,0,0,0-.45-2.63,3,3,0,0,0-1.74-1.86,11.69,11.69,0,0,0-2.58-.7,8.09,8.09,0,0,1-1.79-.47,1.7,1.7,0,0,1-.64-.48,4.12,4.12,0,0,1-.27-.41,4.41,4.41,0,0,0,1-1.18,7.15,7.15,0,0,0,.88-2.26,1,1,0,0,0,.54-.43,2.33,2.33,0,0,0,.36-.91,2.09,2.09,0,0,0-.14-1.32.9.9,0,0,0,0-.21,5.66,5.66,0,0,0,.09-1.5,12.24,12.24,0,0,0-.25-1.77A4.23,4.23,0,0,0,71.64,40,6,6,0,0,0,68.15,39,6,6,0,0,0,64.66,40l-.41.32v0A3.8,3.8,0,0,0,63,42.27a8.45,8.45,0,0,0-.23,1.34v0a3,3,0,0,0,0,.41,6.53,6.53,0,0,0,.09,1.5.9.9,0,0,0,0,.21,2,2,0,0,0-.14,1.32,2.16,2.16,0,0,0,.36.93,1,1,0,0,0,.54.41,7.43,7.43,0,0,0,.88,2.27,5,5,0,0,0,1,1.18,2.17,2.17,0,0,1-.27.39,2,2,0,0,1-.64.5l-.23.09A22.4,22.4,0,0,1,69,54.29a8.68,8.68,0,0,1,5,5.42c.27.89.45,1.65.59,2.31h1.54a2.15,2.15,0,0,0,2.15-2.15v-1A1.91,1.91,0,0,0,78.24,58.41Z" style="fill:#fff"/></g><path d="M71.18,67.27a23.39,23.39,0,0,0-1.06-6.14,6.85,6.85,0,0,0-4-4.31,25.77,25.77,0,0,0-6-1.65,20,20,0,0,1-4.17-1.07A4.06,4.06,0,0,1,54.43,53,5.13,5.13,0,0,1,53.8,52a10.82,10.82,0,0,0,2.4-2.76,16,16,0,0,0,2-5.26,2.44,2.44,0,0,0,1.25-1,5.62,5.62,0,0,0,.84-2.15,4.8,4.8,0,0,0-.34-3.1c0-.14.07-.3.11-.47a14.59,14.59,0,0,0,.2-3.53,26.67,26.67,0,0,0-.59-4.1,9.75,9.75,0,0,0-3.92-5.23,14.48,14.48,0,0,0-16.23,0,9.63,9.63,0,0,0-3.9,5.23A20.84,20.84,0,0,0,35,33.8a13.64,13.64,0,0,0,.2,3.51,4.29,4.29,0,0,0,.09.47,4.78,4.78,0,0,0-.36,3.1A5.35,5.35,0,0,0,35.83,43a2.49,2.49,0,0,0,1.25,1,16.1,16.1,0,0,0,2,5.28A11.52,11.52,0,0,0,41.52,52a4.92,4.92,0,0,1-.61.93,4.11,4.11,0,0,1-1.5,1.15,22.58,22.58,0,0,1-4.17,1.07,25.73,25.73,0,0,0-6,1.63,6.85,6.85,0,0,0-4,4.31,22.94,22.94,0,0,0-1,6.07A4.6,4.6,0,0,0,24,68.3v2.38a.23.23,0,0,0,0,.11,5,5,0,0,0,5,4.87h37.3a5,5,0,0,0,5-5V68.3A5,5,0,0,0,71.18,67.27ZM44.51,68a1.68,1.68,0,0,1-1.68,1.68H33.92A1.68,1.68,0,0,1,32.23,68V64.35a1.68,1.68,0,0,1,1.68-1.68h8.91a1.68,1.68,0,0,1,1.68,1.68Z" style="fill:#fff"/></g></svg>