<svg width="301" height="24" fill="none" xmlns="http://www.w3.org/2000/svg"><path d="M126.104 0h-.978v23.028h.978V0zM16.652 11.613c0 3.804-2.152 7.91-7.825 7.91-4.108 0-7.825-2.303-7.825-7.91-.097-4.606 2.74-8.11 8.314-7.81 5.967.3 7.336 5.006 7.336 7.81zM5.991 8.709c-.49.801-.685 1.802-.685 2.803 0 2.303 1.076 4.406 3.521 4.406 2.348 0 3.522-1.902 3.522-4.205 0-1.602-.392-2.904-1.174-3.705-.88-.8-1.859-.9-2.543-.8-1.37.1-2.054.6-2.641 1.501zM54.8 5.51c.39-.5.684-.8 1.467-1.2.684-.301 1.662-.501 2.64-.501.88 0 1.859.1 2.641.6 1.565.801 1.957 2.203 1.957 4.506v10.212H59.2v-8.41c0-1.302 0-1.802-.196-2.203-.293-.8-1.076-1.101-1.956-1.101-2.25 0-2.25 1.902-2.25 3.704v8.11h-4.303V4.11h4.303v1.402zM48.441 15.222c-.39.9-1.663 4.205-7.238 4.205-4.303 0-7.434-2.703-7.434-7.61 0-3.604 1.761-8.11 7.532-8.11.88 0 3.423-.1 5.282 2.003 1.858 2.103 2.054 5.006 2.054 6.708H38.17c0 1.903.978 3.705 3.326 3.705 2.347 0 3.13-1.602 3.717-2.603l3.227 1.702zm-4.303-5.507c-.098-.6-.196-1.502-.783-2.102-.489-.601-1.37-.902-2.054-.902-1.076 0-1.76.501-2.152 1.002-.587.7-.684 1.301-.88 2.002h5.869zM108.4 7.208h2.836V4.104h-2.738V1h-4.304v3.104h-.685l-1.956 3.104h2.641v7.108c0 1.402 0 2.503.587 3.404.88 1.402 2.543 1.502 4.01 1.502.783 0 1.369-.1 2.25-.2v-3.404l-1.565.1c-1.174 0-1.174-.801-1.076-1.702V7.208zM65.656 1h4.304v3.104h4.5l-1.957 3.104H69.96v6.608c0 .9 0 1.702 1.076 1.702l1.565-.1v3.404c-.88.1-1.467.2-2.25.2-1.467 0-3.13-.1-4.01-1.502-.587-.9-.587-1.902-.587-3.404L65.656 1zM115.247 7.217h-.489V4.614h-.978v-.5h2.445v.5h-.978v2.603zm4.206 0h-.489V4.714l-.098.5-.587 2.003h-.489l-.587-2.002-.196-.501v2.503h-.489V4.113h.685l.782 2.403.783-2.403h.685v3.104zM145.47 3.805h1.956l5.674 15.018h-1.957l-1.565-4.205h-6.26l-1.565 4.205h-1.956l5.673-15.018zm3.521 9.11l-2.543-7.008-2.543 7.009h5.086zM154.958 7.914h1.761v1.602c.391-.601.978-1.102 1.565-1.402.586-.3 1.271-.5 2.054-.5.782 0 1.369.1 1.956.4.587.3 1.076.7 1.369 1.201.294.5.685 1.102.881 1.803.195.7.293 1.501.293 2.302 0 .901-.098 1.702-.293 2.403-.196.701-.489 1.302-.979 1.802-.391.501-.88.902-1.467 1.202-.587.3-1.271.4-1.956.4-.587 0-1.174-.1-1.761-.4-.586-.3-1.076-.701-1.565-1.302v5.407h-1.76l-.098-14.918zm1.761 5.807c0 .7.097 1.301.195 1.802.196.5.392.901.685 1.201.293.3.587.601.978.701.391.1.783.2 1.272.2.391 0 .88-.1 1.173-.2.392-.2.685-.4.978-.7.294-.301.49-.802.685-1.302.196-.5.196-1.202.196-2.003 0-.8-.098-1.501-.294-2.002-.195-.5-.391-1.001-.684-1.302-.294-.3-.587-.6-.978-.7-.392-.1-.685-.2-1.076-.2-.489 0-.881.1-1.272.2-.391.2-.782.4-1.076.7-.293.3-.489.701-.685 1.202-.195.5-.293 1.001-.293 1.702v.7h.196zM167.283 7.914h1.76v1.602c.392-.601.978-1.102 1.565-1.402.587-.3 1.272-.5 2.054-.5.783 0 1.37.1 1.957.4.586.3 1.076.7 1.369 1.201.293.5.685 1.102.88 1.803.196.7.294 1.501.294 2.302 0 .901-.098 1.702-.294 2.403-.195.701-.489 1.302-.978 1.802-.391.501-.88.902-1.467 1.202-.587.3-1.272.4-1.956.4-.587 0-1.174-.1-1.761-.4-.587-.2-1.076-.701-1.565-1.302v5.407h-1.76l-.098-14.918zm1.76 5.807c0 .7.098 1.301.196 1.802.196.5.391.901.685 1.201.293.3.587.601.978.701.391.1.782.2 1.271.2.392 0 .881-.1 1.174-.2.391-.2.685-.4.978-.7.294-.301.489-.802.685-1.302.195-.5.195-1.202.195-2.003 0-.8-.097-1.501-.293-2.002-.196-.5-.391-1.001-.685-1.302-.293-.3-.587-.6-.978-.7-.391-.1-.684-.2-1.076-.2-.489 0-.88.1-1.271.2-.391.2-.783.4-1.076.7-.294.3-.489.701-.685 1.202-.195.5-.293 1.001-.293 1.702v.7h.195zM177.748 3.805h2.152l3.032 12.315 3.228-12.315h2.054l3.13 12.315 3.032-12.315h2.054l-4.108 15.018h-1.956l-3.228-12.515-3.228 12.515h-1.956l-4.206-15.018zM202.104 19.127c-.783 0-1.565-.1-2.152-.4-.587-.3-1.174-.6-1.565-1.101s-.783-1.102-.978-1.803c-.196-.7-.392-1.502-.392-2.403 0-.9.098-1.702.392-2.402.293-.701.587-1.302 1.076-1.803.489-.5.978-.9 1.662-1.201.685-.3 1.37-.4 2.152-.4.783 0 1.467.1 2.152.4.587.3 1.174.6 1.565 1.101.489.5.783 1.101.978 1.802.196.701.392 1.502.392 2.403s-.098 1.702-.392 2.403c-.293.701-.587 1.302-.978 1.802-.489.501-.978.902-1.663 1.202-.782.3-1.467.4-2.249.4zm0-1.501c.587 0 1.076-.1 1.467-.3.391-.201.782-.501.978-.902.293-.4.489-.8.587-1.402.098-.5.195-1.101.195-1.702 0-.6-.097-1.201-.195-1.702-.098-.5-.294-1.001-.587-1.301-.293-.4-.587-.701-.978-.902-.391-.2-.88-.3-1.467-.3-.587 0-1.076.1-1.467.3-.392.2-.783.501-.979.902-.195.4-.489.8-.586 1.301-.098.5-.196 1.102-.196 1.702 0 .601.098 1.202.196 1.702.097.501.293 1.001.586 1.302.294.3.587.7.979.901.391.3.88.4 1.467.4zM209.635 7.911h1.76v1.702c.392-.6.881-1.101 1.37-1.401.489-.3 1.076-.501 1.663-.501.391 0 .684 0 .978.1l-.196 1.702c-.098 0-.293-.1-.391-.1h-.489c-.294 0-.685.1-.978.2-.392.1-.685.3-.979.6-.293.301-.489.602-.684.902-.196.4-.294.801-.294 1.201v6.408h-1.76V7.911zM217.265 3.805h1.76v8.71l4.989-4.605h2.152l-3.815 3.604 4.206 7.209h-2.054l-3.522-6.208-1.956 1.803v4.305h-1.76V3.805zM229.197 15.62c.098.802.391 1.302.978 1.603.489.3 1.174.5 2.054.5.881 0 1.565-.2 1.956-.5.392-.3.587-.701.587-1.202 0-.2 0-.4-.097-.6 0-.2-.098-.401-.294-.501-.098-.1-.293-.3-.587-.4-.293-.1-.587-.201-.978-.301l-1.369-.2c-.587-.1-1.174-.2-1.565-.4-.489-.201-.881-.401-1.174-.602-.293-.2-.587-.5-.685-.9-.195-.401-.195-.802-.195-1.302s.098-1.001.293-1.302c.196-.4.489-.7.88-1.001.392-.3.783-.5 1.37-.6.489-.1 1.076-.201 1.663-.201.782 0 1.369.1 1.956.2.489.2.978.4 1.271.6.294.301.587.602.783.902.196.3.293.7.391 1.201l-1.663.3c-.097-.3-.195-.6-.293-.8-.098-.2-.294-.4-.489-.6-.196-.101-.489-.301-.783-.301-.293-.1-.684-.1-1.076-.1-.489 0-.88 0-1.271.1-.294.1-.587.2-.783.4-.195.2-.293.3-.391.5-.098.201-.098.401-.098.602 0 .2 0 .4.098.6.098.2.196.3.294.5l.586.301c.294.1.587.2.979.3l1.565.301c1.271.2 2.151.6 2.64 1.101.587.501.783 1.302.783 2.303 0 .5-.098.901-.293 1.302-.196.4-.49.7-.783 1.001-.391.3-.782.5-1.369.7-.587.201-1.174.201-1.859.201a8.58 8.58 0 01-1.76-.2c-.587-.1-1.076-.3-1.468-.6-.391-.301-.782-.602-.978-1.102-.293-.4-.391-1.001-.489-1.602h1.663v-.2zM237.12 7.217h-.489V4.614h-.978v-.5h2.445v.5h-.978v2.603zm4.206 0h-.489V4.714l-.098.5-.587 2.003h-.489l-.587-2.002-.195-.501v2.503h-.489V4.113h.684l.783 2.403.782-2.403h.685v3.104z" fill="#fff"/><path d="M87.86 15.222l-.783 1.301c-.782 1.202-2.25 2.904-6.358 2.904-4.303 0-7.238-2.703-7.238-7.61 0-3.604 1.761-8.11 7.532-8.11.88 0 3.423-.1 5.282 2.003 1.858 2.103 2.054 5.006 2.054 6.708H77.883c0 1.903.88 3.705 3.228 3.705 2.347 0 3.032-1.602 3.521-2.603l3.228 1.702zm-4.01-5.507c-.098-.6-.196-1.502-.783-2.102-.49-.501-1.37-.801-2.054-.801-1.076 0-1.76.5-2.152 1-.587.702-.685 1.302-.88 2.003h5.869v-.1z" fill="#fff"/><path d="M102.531 19.132l-5.281-7.91 4.401-7.109h-4.89l-2.054 3.404-2.348-3.404h-4.89l4.792 7.109-4.89 7.91h4.89l2.543-4.206 2.837 4.206h4.89zM22.521 5.51c.391-.6 1.76-1.701 3.815-1.701 3.619 0 6.064 2.803 6.064 7.81 0 3.103-1.076 7.909-6.26 7.909-1.858 0-3.325-1.102-3.717-1.702v6.207H18.12V4.11h4.303l.098 1.402zm2.934 1.703c-.782 0-1.564.3-2.25 1.101-.586.801-.88 2.002-.88 3.304 0 1.802.49 2.803 1.076 3.404.49.601 1.272.901 1.957.901 2.054 0 3.032-2.302 3.032-4.405 0-1.802-.49-3.805-2.25-4.205-.293-.1-.489-.1-.684-.1zM259.98 15.332a4.826 4.826 0 01-.386 1.445c-.2.439-.472.82-.816 1.145a3.612 3.612 0 01-1.258.758c-.487.18-1.054.271-1.703.271-.705 0-1.34-.119-1.902-.357a3.807 3.807 0 01-1.431-1.044c-.391-.458-.696-1.016-.915-1.674-.21-.668-.315-1.426-.315-2.275 0-.858.114-1.62.343-2.288.229-.668.549-1.23.959-1.688.41-.458.891-.806 1.444-1.045a4.612 4.612 0 011.817-.357c.63 0 1.173.08 1.631.243a3.304 3.304 0 011.931 1.745c.2.41.353.863.458 1.36l-1.287.214a4.756 4.756 0 00-.344-1.002 2.362 2.362 0 00-.529-.772 1.985 1.985 0 00-.773-.472c-.295-.115-.658-.172-1.087-.172-.505 0-.958.105-1.359.315-.391.2-.725.486-1.001.858-.267.363-.472.806-.615 1.33a6.409 6.409 0 00-.215 1.717c0 .63.072 1.207.215 1.731.143.515.348.958.615 1.33.276.372.61.658 1.001.859.401.2.859.3 1.374.3.467 0 .863-.057 1.187-.172.334-.123.605-.295.815-.515.22-.219.391-.481.515-.786.124-.305.215-.64.272-1.002h1.359zM261.768 8.48h6.609v1.16h-5.293v3.204h5.006v1.173h-5.006v3.519h5.564l-.214 1.158h-6.666V8.48zM273.246 17.666c.363-.325.754-.668 1.173-1.03.42-.363.844-.735 1.273-1.116.458-.4.859-.763 1.202-1.087a8.36 8.36 0 00.858-.959c.229-.305.401-.615.515-.93.115-.314.172-.653.172-1.015 0-.601-.162-1.059-.486-1.373-.325-.325-.778-.487-1.359-.487-.353 0-.654.038-.902.115-.248.076-.457.19-.629.343a1.74 1.74 0 00-.429.543c-.105.22-.201.477-.286.773l-1.188-.186c.086-.343.205-.677.358-1.001a2.914 2.914 0 011.631-1.473c.4-.163.891-.244 1.473-.244a3.9 3.9 0 011.345.215c.391.143.715.343.973.6.267.248.467.549.6.902.143.352.215.744.215 1.173 0 .429-.062.83-.186 1.201-.114.372-.296.74-.544 1.102a7.905 7.905 0 01-.944 1.116c-.381.381-.834.796-1.359 1.244-.276.239-.562.482-.858.73a31.74 31.74 0 00-.844.73h4.835l-.186 1.144h-6.423v-1.03zM285.016 10.196l-2.274 1.373-.544-.93 2.947-1.83h1.159v9.884h-1.288v-8.497zM290.135 17.02h1.43v1.673h-1.43V17.02zM292.585 15.447l4.935-6.81h1.275v6.72h1.425l-.18 1.065h-1.245v2.58h-1.26v-2.58h-4.95v-.975zm4.95-.09v-4.995l-3.585 4.995h3.585z" fill="#fff"/></svg>