<svg id="Layer_1" data-name="Layer 1" xmlns="http://www.w3.org/2000/svg" viewBox="0 0 100 100"><title>my_workspace</title><g style="opacity:0.8"><path d="M50,1A49,49,0,1,1,1,50,49.06,49.06,0,0,1,50,1m0-1a50,50,0,1,0,50,50A50,50,0,0,0,50,0Z" style="fill:#fff"/><path d="M83.89,45.61a6.76,6.76,0,0,0-6.19-4.9A28.46,28.46,0,0,0,56.84,19.85a7.12,7.12,0,0,0-.26-1.55,6.77,6.77,0,0,0-13.27,1.54A28.47,28.47,0,0,0,22.45,40.71a7.37,7.37,0,0,0-1.38.25,6.77,6.77,0,0,0,1.38,13.26A28.36,28.36,0,0,0,30.9,68.47,5.73,5.73,0,0,0,29.23,71a21.59,21.59,0,0,0-1,5.67,4.58,4.58,0,0,0-.13,1V80a4.26,4.26,0,0,0,.1.8l.76.49.76.47h0l.77.45.79.44.79.41.81.4.81.38.83.36a37.68,37.68,0,0,0,3.66,1.34,40.1,40.1,0,0,0,23.71,0,37.84,37.84,0,0,0,3.66-1.34,39.76,39.76,0,0,0,6.33-3.41A3.57,3.57,0,0,0,72,80v-2.3a4.33,4.33,0,0,0-.08-.81l0-.12a21.83,21.83,0,0,0-1-5.76,5.76,5.76,0,0,0-1.67-2.56,28.42,28.42,0,0,0,8.45-14.22A7.11,7.11,0,0,0,79.25,54,6.77,6.77,0,0,0,83.89,45.61ZM67.09,67.26a24.78,24.78,0,0,0-5.17-1.36,20.7,20.7,0,0,1-4.22-1.1,4.79,4.79,0,0,1-1.76-1.33,5.56,5.56,0,0,1-.71-1.06l-.33-.62.55-.44a10,10,0,0,0,2.13-2.45,14.63,14.63,0,0,0,1.87-4.81l.11-.52.5-.14a1.57,1.57,0,0,0,.73-.62,4.44,4.44,0,0,0,.68-1.74,3.75,3.75,0,0,0-.24-2.39l-.18-.3.08-.35c0-.14.07-.27.1-.41a13.32,13.32,0,0,0,.18-3.17,21.88,21.88,0,0,0-.56-3.77,8.49,8.49,0,0,0-3.44-4.57,13.11,13.11,0,0,0-14.66,0,8.47,8.47,0,0,0-3.44,4.56,20.54,20.54,0,0,0-.57,3.79,13,13,0,0,0,.17,3.18c0,.14.06.27.09.41l.08.35-.18.3a3.75,3.75,0,0,0-.24,2.39,4.37,4.37,0,0,0,.69,1.75,1.48,1.48,0,0,0,.72.61l.51.14.11.51a15,15,0,0,0,1.86,4.8,10.08,10.08,0,0,0,2.14,2.45l.54.43-.33.62a6.34,6.34,0,0,1-.71,1,4.82,4.82,0,0,1-1.76,1.34,20.15,20.15,0,0,1-4.22,1.09A25.23,25.23,0,0,0,33,67.25,26.11,26.11,0,0,1,24.79,54a6.77,6.77,0,0,0,0-13A26.15,26.15,0,0,1,43.61,22.18a6.77,6.77,0,0,0,12.92,0A26.17,26.17,0,0,1,75.35,41a6.77,6.77,0,0,0,0,12.92A26.08,26.08,0,0,1,67.09,67.26Z" style="fill:#fff"/></g></svg>