<svg width="36" height="36" viewBox="0 0 36 36" fill="none" xmlns="http://www.w3.org/2000/svg">
<path d="M18 35.3C27.5545 35.3 35.3 27.5545 35.3 18C35.3 8.44547 27.5545 0.700001 18 0.700001C8.44548 0.700001 0.700012 8.44547 0.700012 18C0.700012 27.5545 8.44549 35.3 18 35.3Z" stroke="white"/>
<path d="M15.3 13.4L17.5 20.5L20.5 12.3L22.5 16.9H25.9V15.9H23.2L20.4 9.7L17.6 17.4L15.6 10.9L13.2 15H11V16H13.8L15.3 13.4Z" fill="white"/>
<path d="M8.89999 10.5C8.89999 10.2 8.69999 10 8.39999 10C8.09999 10 7.89999 10.2 7.89999 10.5V23H18.4V22.4C18.4 22.3 18.4 22.1 18.5 22H8.89999V10.5Z" fill="white"/>
<path d="M29.2 23.8V22.4H27.8C27.7 22 27.5 21.6 27.3 21.2L28.3 20.2L27.3 19.2L26.3 20.2C25.9 20 25.5 19.8 25.1 19.7V18.3H23.7V19.8C23.3 19.9 22.9 20.1 22.5 20.3L21.5 19.3L20.5 20.3L21.5 21.3C21.2 21.7 21.1 22.1 21 22.5H19.6V23.9H21C21.1 24.3 21.3 24.8 21.5 25.1L20.5 26.1L21.5 27.1L22.5 26.1C22.9 26.3 23.3 26.5 23.7 26.6V28H25.1V26.6C25.5 26.5 26 26.3 26.3 26.1L27.3 27.1L28.3 26.1L27.3 25.1C27.5 24.7 27.7 24.3 27.8 23.9L29.2 23.8ZM26.5 23.2C26.5 24.3 25.6 25.3 24.4 25.3C23.2 25.3 22.3 24.4 22.3 23.2C22.3 22 23.2 21.1 24.4 21.1C25.5 21.1 26.5 22 26.5 23.2Z" fill="white"/>
</svg>
