<svg width="36" height="36" viewBox="0 0 36 36" fill="none" xmlns="http://www.w3.org/2000/svg">
<g clip-path="url(#clip0)">
<path d="M18.0304 35.3652C27.6041 35.3652 35.3652 27.6041 35.3652 18.0304C35.3652 8.45664 27.6041 0.695597 18.0304 0.695597C8.45666 0.695597 0.695618 8.45664 0.695618 18.0304C0.695618 27.6041 8.45666 35.3652 18.0304 35.3652Z" stroke="white"/>
<path d="M20.3383 13.6934H15.7225C14.7815 13.6934 14.0164 12.9271 14.0164 11.9861V9.17113C14.0164 8.23016 14.7815 7.46499 15.7225 7.46499H20.3383C21.2793 7.46499 22.0455 8.23016 22.0455 9.17113V11.9861C22.0444 12.9271 21.2793 13.6934 20.3383 13.6934ZM15.7225 8.59189C15.4025 8.59189 15.1433 8.85108 15.1433 9.17113V11.9861C15.1433 12.3062 15.4025 12.5665 15.7225 12.5665H20.3383C20.6583 12.5665 20.9186 12.3062 20.9186 11.9861V9.17113C20.9186 8.85108 20.6595 8.59189 20.3383 8.59189H15.7225Z" fill="white"/>
<path d="M27.8446 11.2841H8.21617C7.28648 11.2841 6.52582 12.0447 6.52582 12.9744V16.2131H15.7766V15.2226C15.7766 14.8372 16.091 14.5228 16.4764 14.5228H19.5844C19.9709 14.5228 20.2842 14.8372 20.2842 15.2226V16.2131H29.5349V12.9744C29.5349 12.0447 28.7743 11.2841 27.8446 11.2841Z" fill="white"/>
<path d="M20.2842 17.34V18.3306C20.2842 18.716 19.9709 19.0304 19.5844 19.0304H16.4764C16.091 19.0304 15.7766 18.716 15.7766 18.3306V17.34H6.52582V25.0863C6.52582 26.016 7.28648 26.7767 8.21617 26.7767H27.8446C28.7743 26.7767 29.5349 26.016 29.5349 25.0863V17.34H20.2842Z" fill="white"/>
<path d="M19.1573 15.6497H16.9035V17.9035H19.1573V15.6497Z" fill="white"/>
</g>
<defs>
<clipPath id="clip0">
<rect width="36" height="36" fill="white"/>
</clipPath>
</defs>
</svg>
